<?xml version="1.0" standalone="no"?>
<!DOCTYPE svg PUBLIC "-//W3C//DTD SVG 20010904//EN"
 "http://www.w3.org/TR/2001/REC-SVG-20010904/DTD/svg10.dtd">
<svg version="1.0" xmlns="http://www.w3.org/2000/svg"
 width="2000.000000pt" height="2000.000000pt" viewBox="0 0 2000.000000 2000.000000"
 preserveAspectRatio="xMidYMid meet">

<g transform="translate(0.000000,2000.000000) scale(0.100000,-0.100000)"
fill="#000000" stroke="#000000">
<path d="M10003 16730 c-1810 -108 -3470 -847 -4728 -2105 -278 -277 -562
-611 -758 -892 -51 -73 -95 -132 -99 -132 -4 -1 -14 11 -23 27 -16 28 -16 21
0 -37 4 -13 -18 -57 -68 -133 -975 -1503 -1358 -3330 -1067 -5096 250 -1516
958 -2891 2044 -3966 1106 -1095 2538 -1806 4081 -2025 897 -128 1832 -80
2720 139 1694 418 3162 1417 4169 2839 601 848 1025 1850 1211 2864 427 2332
-312 4717 -1983 6395 -562 564 -1176 1007 -1892 1365 -854 427 -1712 666
-2690 747 -169 14 -742 20 -917 10z m797 -150 c364 -23 741 -77 1095 -155 174
-39 511 -127 520 -137 2 -2 -54 -64 -124 -138 l-128 -134 -164 32 c-213 42
-459 78 -684 99 -220 20 -802 23 -1005 5 -442 -40 -824 -109 -1199 -217 l-160
-46 -345 141 c-190 77 -348 140 -352 140 -4 0 137 -108 313 -240 l319 -241 -3
-351 -3 -350 -72 -102 c-218 -305 -471 -581 -783 -855 -41 -36 -44 -40 -15
-23 49 30 400 269 721 492 150 105 278 190 285 190 15 0 1943 -488 1968 -498
35 -15 171 -390 251 -692 24 -91 44 -160 44 -155 0 6 -6 66 -14 135 -20 167
-35 534 -27 645 l7 89 180 84 c411 191 730 344 1063 509 l354 175 45 -11 c132
-34 775 -271 1066 -394 59 -25 107 -44 107 -43 0 2 -42 27 -92 57 -404 232
-791 522 -1162 873 -77 72 -143 130 -146 129 -4 -1 -72 69 -153 157 l-146 158
54 177 c29 97 56 179 59 182 7 7 278 -86 471 -162 1103 -432 2089 -1138 2845
-2040 159 -190 262 -327 253 -336 -4 -4 -62 -23 -127 -43 -66 -19 -122 -40
-126 -46 -8 -13 -47 1 -218 79 -246 111 -527 285 -756 469 -112 89 -123 96
-76 47 30 -31 172 -166 315 -299 292 -272 467 -451 551 -563 62 -83 124 -194
124 -224 0 -12 7 -19 20 -19 17 0 20 -7 20 -45 0 -86 -92 -1708 -106 -1872
l-6 -73 -212 -105 c-209 -104 -431 -197 -598 -251 -58 -19 -84 -31 -75 -37 7
-5 1 -6 -16 -2 -17 3 -26 2 -23 -4 16 -25 -565 -140 -795 -158 l-78 -6 -133
126 c-620 584 -1692 1398 -2121 1608 l-67 33 -44 136 c-74 224 -137 495 -176
752 -10 67 -19 105 -19 83 -1 -22 -3 -130 -5 -240 -3 -110 -12 -267 -21 -350
-15 -145 -61 -444 -71 -468 -3 -7 -71 -55 -152 -107 -417 -271 -881 -664
-1225 -1037 -189 -206 -300 -338 -461 -554 -72 -97 -140 -188 -151 -202 l-20
-26 -125 10 c-285 22 -604 75 -845 139 -61 16 -122 27 -135 24 -20 -5 -22 -4
-10 6 12 9 11 10 -6 5 -53 -14 -511 176 -789 327 l-130 70 0 352 c-1 531 -48
969 -154 1445 l-30 135 57 80 c127 181 305 389 497 582 110 111 229 227 265
258 76 67 -234 -137 -714 -472 l-290 -202 -71 0 c-38 0 -142 -5 -230 -10 -542
-34 -1090 -117 -1557 -235 -53 -14 -101 -25 -107 -25 -5 0 -80 138 -167 307
l-157 306 17 31 c30 56 231 332 348 478 1247 1555 3072 2504 5073 2637 180 12
678 12 865 1z m-6276 -3582 l75 -348 -60 -127 c-301 -636 -516 -1264 -674
-1967 -21 -94 -40 -156 -53 -170 -89 -101 -485 -526 -490 -526 -8 0 7 235 28
424 95 853 339 1673 725 2434 126 250 365 659 371 636 2 -5 37 -165 78 -356z
m11616 -2798 c222 -366 452 -746 512 -844 l109 -179 6 -251 c6 -261 -6 -560
-32 -829 -16 -156 -61 -486 -72 -522 -3 -11 -3 -17 1 -14 4 4 47 154 95 335
153 567 243 854 333 1059 l43 100 154 104 154 104 -7 -124 c-69 -1249 -476
-2470 -1171 -3519 -120 -180 -326 -463 -347 -476 -6 -4 -8 3 -5 22 4 16 9 101
12 189 9 214 17 264 70 448 90 312 202 600 336 862 37 74 66 135 64 135 -2 0
-83 -118 -180 -262 -291 -431 -521 -726 -652 -836 l-51 -42 -933 2 -934 3 -52
76 c-167 242 -365 621 -480 914 -56 143 -76 209 -97 320 -60 320 -93 731 -80
1005 l6 145 78 135 c424 738 742 1443 864 1916 l33 129 86 52 c217 131 473
258 701 348 59 23 104 45 100 47 -5 3 -4 3 3 2 7 -2 38 6 70 16 168 56 816
136 849 105 6 -5 192 -309 414 -675z m-8650 379 c147 -13 356 -43 488 -70 57
-11 110 -18 119 -15 8 3 26 3 40 0 19 -5 22 -9 11 -16 -9 -7 -4 -8 15 -3 19 4
26 2 22 -5 -3 -6 3 -10 16 -10 36 0 241 -86 429 -179 297 -148 637 -363 651
-411 112 -385 297 -890 477 -1300 47 -107 85 -202 84 -210 -1 -22 -85 -217
-162 -375 -129 -265 -278 -507 -474 -769 -61 -82 -111 -152 -111 -157 0 -14
-198 -231 -370 -404 -198 -200 -321 -307 -344 -300 -9 2 -376 95 -815 206
-729 183 -801 203 -820 226 -11 15 -52 63 -91 107 -244 280 -460 603 -641 959
-49 97 -94 174 -99 170 -4 -5 -5 0 -2 9 3 10 -3 37 -13 62 -64 144 -160 685
-175 981 -3 66 -8 136 -10 156 -5 35 -4 36 143 146 411 308 776 695 1051 1112
l75 114 195 -6 c108 -4 248 -12 311 -18z m-3470 -625 c334 -225 712 -444 1067
-620 l153 -76 82 -131 c203 -328 405 -711 548 -1044 72 -166 97 -213 65 -123
-8 24 -13 45 -11 47 6 6 109 -311 145 -447 63 -236 120 -566 136 -791 l7 -86
-446 -597 c-245 -328 -447 -596 -448 -596 -2 0 -192 38 -422 85 -230 47 -423
85 -428 85 -24 0 -262 408 -407 698 -495 988 -751 2072 -751 3172 l0 235 253
162 c138 89 254 161 257 160 3 -1 93 -61 200 -133z m6405 -2028 c568 -61 944
-80 1576 -80 l517 -1 23 -35 c188 -285 399 -726 510 -1064 22 -67 46 -135 54
-152 20 -43 71 -266 100 -438 33 -197 55 -404 61 -586 l5 -155 -551 -655
c-303 -360 -555 -659 -559 -663 -5 -5 -53 -15 -107 -22 -322 -45 -729 -66
-1079 -54 -115 3 -211 6 -212 4 -2 -1 57 -12 129 -24 373 -65 749 -185 1098
-352 l145 -70 112 -222 111 -222 -33 -40 c-18 -22 -90 -102 -160 -178 -70 -76
-125 -140 -123 -142 2 -2 145 77 319 176 l315 179 144 26 c326 58 687 154 968
259 127 47 191 73 370 151 161 71 -325 -214 -606 -355 -792 -397 -1624 -634
-2552 -728 -221 -22 -975 -25 -1195 -5 -643 60 -1219 184 -1785 385 -253 90
-540 210 -540 225 0 5 -14 91 -30 192 -31 187 -31 199 7 200 18 0 477 132 708
204 250 77 605 195 835 278 212 76 364 100 753 118 271 13 519 1 900 -45 23
-3 -5 6 -63 19 -428 97 -838 247 -1199 439 l-104 55 -308 798 -308 798 43 105
c113 274 247 524 431 801 l123 186 219 208 c246 236 365 341 503 446 94 71 96
71 145 66 28 -2 158 -16 290 -30z m-1285 -829 c0 -2 -10 -12 -22 -23 l-23 -19
19 23 c18 21 26 27 26 19z m-4218 -1673 l443 -227 356 -361 c462 -469 892
-877 1351 -1284 92 -82 121 -116 220 -260 62 -91 115 -170 117 -175 6 -17
-474 234 -646 336 -796 476 -1489 1099 -2040 1832 -126 168 -261 365 -250 365
3 0 205 -102 449 -226z"/>
<path d="M11292 13390 c0 -14 2 -19 5 -12 2 6 2 18 0 25 -3 6 -5 1 -5 -13z"/>
<path d="M11281 13304 c0 -11 3 -14 6 -6 3 7 2 16 -1 19 -3 4 -6 -2 -5 -13z"/>
<path d="M8108 10483 c7 -3 16 -2 19 1 4 3 -2 6 -13 5 -11 0 -14 -3 -6 -6z"/>
</g>
</svg>
